<svg xmlns="http://www.w3.org/2000/svg" viewBox="0.0 0.0 600.5250244 329.3400917" width="426.85642280976657" height="234.2708101748914">
  <defs>
    <style>
      .cls-1 {
        fill: #cb007a;
      }

      .cls-2 {
        fill: #5495d8;
      }

      .cls-3 {
        fill: #ffffff;
      }

      .cls-4 {
        fill: #8fbcc2;
      }
    </style>
  </defs>
  <g>
    <g>
      <path class="cls-3" d="M354.9247879,89.661684c16.6530151-8.3270264,25.2399902-22.3770142,25.2399902-39.2910156,0-27.5830078-23.4179688-47.6190186-73.6380005-47.6190186h-97.3179932v182.1450195h102.5220337c50.2199707,0,77.0209961-18.4749756,77.0209961-50.2189941,0-21.5969849-12.4899902-37.210022-33.8270264-45.0159912ZM269.5767654,45.6866474h28.6230469c13.7919922,0,20.0349731,4.684021,20.0349731,13.5310059,0,8.8470459-6.242981,13.5300293-20.0349731,13.5300293h-28.6230469v-27.0610352ZM306.5267776,141.9626484h-36.9500122v-28.6220093h36.9500122c13.5300293,0,20.2960205,4.9440308,20.2960205,14.3110352s-6.7659912,14.3109741-20.2960205,14.3109741Z"/>
      <polygon class="cls-3" points="118.1352371 2.7521992 118.1352371 67.2841816 61.4092239 67.2841816 61.4092239 2.7521992 .0002273 2.7521992 .0002273 184.8971577 61.4092239 184.8971577 61.4092239 117.7641621 118.1352371 117.7641621 118.1352371 184.8971577 179.5431961 184.8971577 179.5431961 2.7521992 118.1352371 2.7521992"/>
      <polygon class="cls-4" points="389.3250122 0 452.8160095 88.355011 489.2449951 88.355011 489.2449951 45.79599 458.2800293 0 389.3250122 0"/>
      <polygon class="cls-3" points="489.2444153 140.1810913 489.2444153 96.0680847 451.4854126 96.0680847 385.6764221 187.6500854 457.1494141 187.6500854 489.2444153 140.1810913"/>
      <polygon class="cls-1" points="527.9205322 0 496.956543 45.79599 496.956543 88.355011 533.3855591 88.355011 596.8765259 0 527.9205322 0"/>
      <polygon class="cls-2" points="496.9569092 96.0677948 496.9569092 140.1817932 529.0519409 187.6497955 600.5249023 187.6497955 534.7158813 96.0677948 496.9569092 96.0677948"/>
      <path class="cls-3" d="M549.6010132,273.6850891h-17.3430176v-32.3199997h17.3430176c12.9279785,0,19.3919678,5.9910049,19.3919678,16.239006,0,10.0899963-6.4639893,16.0809937-19.3919678,16.0809937M551.492981,216.7700958h-50.4509888v110.3619957h31.2160034v-28.8519993h19.2349854c30.1130371,0,49.0320435-15.6079998,49.0320435-40.6759968,0-25.2259979-18.9190063-40.8339996-49.0320435-40.8339996M428.0449829,329.3400917c32.6360474,0,51.8710327-18.4469986,51.8710327-51.3979988v-61.1719971h-30.7440186v60.2259979c0,18.9189987-7.8829956,26.4869976-20.8109741,26.4869976-13.0859985,0-20.9689941-7.5679989-20.9689941-26.4869976v-60.2259979h-31.217041v61.1719971c0,32.9510002,19.2340088,51.3979988,51.8699951,51.3979988M299.3950195,303.4830914c-16.7120361,0-29.7980347-12.4549999-29.7980347-31.5319996s13.0859985-31.5320015,29.7980347-31.5320015c16.7119751,0,29.7979736,12.4550018,29.7979736,31.5320015s-13.0859985,31.5319996-29.7979736,31.5319996M299.3950195,329.3400917c35.315979,0,61.3299561-24.2799988,61.3299561-57.3889999s-26.0139771-57.3889961-61.3299561-57.3889961c-35.3160095,0-61.3300171,24.2799988-61.3300171,57.3889961s26.0140076,57.3889999,61.3300171,57.3889999M195.0249939,257.6040955c0,10.0899963-6.4639893,16.0809937-19.3919983,16.0809937h-17.3429871v-32.3199997h17.3429871c12.928009,0,19.3919983,5.9910049,19.3919983,16.239006M195.3399963,327.1320915h33.4240112l-23.8059998-34.6850014c13.7159882-6.6219978,21.598999-18.6039963,21.598999-34.8429947,0-25.2259979-18.9190063-40.8339996-49.0320129-40.8339996h-50.4519958v110.3619957h31.2170105v-29.3249989h17.0269928l20.022995,29.3249989ZM79.6190033,299.8570919c-5.5179977,2.5230007-11.0360031,3.6259995-16.8700027,3.6259995-18.6039963,0-31.2169991-12.9279995-31.2169991-31.5319996,0-19.0769997,12.6130028-31.5320015,31.5330009-31.5320015,10.5630035,0,19.2340012,3.9410019,26.802002,12.2970047l19.8649979-17.9729996c-10.8779984-13.0859985-27.5899963-20.1809998-48.2439995-20.1809998-35.7889977,0-61.4880028,23.8069992-61.4880028,57.3889961s25.6990051,57.3889999,60.8570023,57.3889999c16.0820007,0,33.5820007-4.8880005,46.3530045-14.0319996v-45.722002h-27.5910034v30.2710018Z"/>
      <polygon class="cls-2" points="29.3208219 2.7521975 0 184.8966972 0 2.7521975 29.3208219 2.7521975"/>
      <polygon class="cls-4" points="150.222391 184.8966972 179.5432129 2.7521975 179.5432129 184.8966972 150.222391 184.8966972"/>
      <polygon class="cls-1" points="238.5296232 2.7521975 209.2088013 184.8966972 209.2088013 2.7521975 238.5296232 2.7521975"/>
    </g>
  </g>
</svg>